<mxfile host="app.diagrams.net" modified="2023-10-23T22:09:58.673Z" agent="5.0 (Windows)" etag="U_Ca1eQoLddkCc43NTr7" version="16.6.0" type="github">
  <diagram id="nAITRXOxQYgIMh2aRWDa" name="Page-1">
    <mxGraphModel dx="751" dy="275" grid="1" gridSize="10" guides="1" tooltips="1" connect="1" arrows="1" fold="1" page="1" pageScale="1" pageWidth="827" pageHeight="1169" math="0" shadow="0">
      <root>
        <mxCell id="0" />
        <mxCell id="1" parent="0" />
        <mxCell id="l_2UNXWWoVPSc3BDSIuR-1" value="" style="rounded=0;whiteSpace=wrap;html=1;" parent="1" vertex="1">
          <mxGeometry x="40" y="40" width="600" height="280" as="geometry" />
        </mxCell>
        <mxCell id="l_2UNXWWoVPSc3BDSIuR-2" value="&lt;b&gt;Win MAIN&lt;/b&gt;" style="shape=note;whiteSpace=wrap;html=1;backgroundOutline=1;darkOpacity=0.05;fillColor=#ffcd28;gradientColor=#ffa500;strokeColor=#d79b00;" parent="1" vertex="1">
          <mxGeometry x="60" y="60" width="80" height="100" as="geometry" />
        </mxCell>
        <mxCell id="l_2UNXWWoVPSc3BDSIuR-3" value="" style="rounded=0;whiteSpace=wrap;html=1;" parent="1" vertex="1">
          <mxGeometry x="40" y="720" width="760" height="280" as="geometry" />
        </mxCell>
        <mxCell id="l_2UNXWWoVPSc3BDSIuR-4" value="&lt;b&gt;GAMING PC&lt;/b&gt;" style="text;html=1;strokeColor=none;fillColor=none;align=center;verticalAlign=middle;whiteSpace=wrap;rounded=0;" parent="1" vertex="1">
          <mxGeometry x="350" y="40" width="80" height="30" as="geometry" />
        </mxCell>
        <mxCell id="l_2UNXWWoVPSc3BDSIuR-5" value="&lt;b&gt;TS3&lt;br&gt;Discord&lt;/b&gt;" style="shape=note;whiteSpace=wrap;html=1;backgroundOutline=1;darkOpacity=0.05;fillColor=#ffcd28;gradientColor=#ffa500;strokeColor=#d79b00;" parent="1" vertex="1">
          <mxGeometry x="160" y="60" width="80" height="100" as="geometry" />
        </mxCell>
        <mxCell id="l_2UNXWWoVPSc3BDSIuR-6" value="&lt;b&gt;STREAMING PC&lt;br&gt;&lt;/b&gt;" style="text;html=1;strokeColor=none;fillColor=none;align=center;verticalAlign=middle;whiteSpace=wrap;rounded=0;" parent="1" vertex="1">
          <mxGeometry x="350" y="720" width="110" height="30" as="geometry" />
        </mxCell>
        <mxCell id="l_2UNXWWoVPSc3BDSIuR-8" value="&lt;b&gt;STREAM EFFECTS&lt;/b&gt;" style="shape=note;whiteSpace=wrap;html=1;backgroundOutline=1;darkOpacity=0.05;fillColor=#ffcd28;gradientColor=#ffa500;strokeColor=#d79b00;" parent="1" vertex="1">
          <mxGeometry x="60" y="740" width="80" height="100" as="geometry" />
        </mxCell>
        <mxCell id="l_2UNXWWoVPSc3BDSIuR-9" value="" style="rounded=1;whiteSpace=wrap;html=1;" parent="1" vertex="1">
          <mxGeometry x="40" y="400" width="680" height="240" as="geometry" />
        </mxCell>
        <mxCell id="l_2UNXWWoVPSc3BDSIuR-10" value="&lt;b&gt;MIXER&lt;/b&gt;" style="text;html=1;strokeColor=none;fillColor=none;align=center;verticalAlign=middle;whiteSpace=wrap;rounded=0;" parent="1" vertex="1">
          <mxGeometry x="350" y="400" width="110" height="30" as="geometry" />
        </mxCell>
        <mxCell id="l_2UNXWWoVPSc3BDSIuR-11" value="" style="shape=flexArrow;endArrow=classic;html=1;rounded=0;exitX=0.94;exitY=1.008;exitDx=0;exitDy=0;exitPerimeter=0;entryX=0.842;entryY=0.004;entryDx=0;entryDy=0;entryPerimeter=0;" parent="1" source="l_2UNXWWoVPSc3BDSIuR-9" target="l_2UNXWWoVPSc3BDSIuR-3" edge="1">
          <mxGeometry width="50" height="50" relative="1" as="geometry">
            <mxPoint x="390" y="540" as="sourcePoint" />
            <mxPoint x="440" y="490" as="targetPoint" />
          </mxGeometry>
        </mxCell>
        <mxCell id="l_2UNXWWoVPSc3BDSIuR-12" value="Individual Input Return" style="text;html=1;strokeColor=none;fillColor=none;align=center;verticalAlign=middle;whiteSpace=wrap;rounded=0;" parent="1" vertex="1">
          <mxGeometry x="675" y="660" width="110" height="30" as="geometry" />
        </mxCell>
        <mxCell id="l_2UNXWWoVPSc3BDSIuR-13" value="&lt;h1&gt;OBS&lt;/h1&gt;&lt;p&gt;5 Inputs gehen in OBS und werden dort individuell auf die Spuren 2-6 geschrieben um beim YT Videos&amp;nbsp; schniden mehr FlexibilitÃ¤t zu haben&lt;br&gt;&lt;/p&gt;" style="text;html=1;strokeColor=none;fillColor=none;spacing=5;spacingTop=-20;whiteSpace=wrap;overflow=hidden;rounded=0;" parent="1" vertex="1">
          <mxGeometry x="660" y="730" width="140" height="170" as="geometry" />
        </mxCell>
        <mxCell id="l_2UNXWWoVPSc3BDSIuR-14" value="" style="endArrow=classic;html=1;rounded=0;exitX=0.824;exitY=1.008;exitDx=0;exitDy=0;exitPerimeter=0;" parent="1" source="l_2UNXWWoVPSc3BDSIuR-9" edge="1">
          <mxGeometry width="50" height="50" relative="1" as="geometry">
            <mxPoint x="390" y="540" as="sourcePoint" />
            <mxPoint x="599" y="720" as="targetPoint" />
          </mxGeometry>
        </mxCell>
        <mxCell id="l_2UNXWWoVPSc3BDSIuR-16" value="&lt;div&gt;MASTER&lt;/div&gt;&lt;div&gt;Mix&lt;br&gt;&lt;/div&gt;" style="text;html=1;strokeColor=none;fillColor=none;align=center;verticalAlign=middle;whiteSpace=wrap;rounded=0;" parent="1" vertex="1">
          <mxGeometry x="600" y="660" width="60" height="30" as="geometry" />
        </mxCell>
        <mxCell id="l_2UNXWWoVPSc3BDSIuR-17" value="&lt;div&gt;OBS&lt;/div&gt;&lt;div&gt;Spur 1&lt;br&gt;&lt;/div&gt;" style="text;html=1;strokeColor=none;fillColor=none;align=center;verticalAlign=middle;whiteSpace=wrap;rounded=0;" parent="1" vertex="1">
          <mxGeometry x="570" y="720" width="60" height="30" as="geometry" />
        </mxCell>
        <mxCell id="l_2UNXWWoVPSc3BDSIuR-18" value="" style="endArrow=classic;html=1;rounded=0;exitX=1;exitY=0.5;exitDx=0;exitDy=0;entryX=0;entryY=0.5;entryDx=0;entryDy=0;" parent="1" source="pOUxotwssDYUm1VHsIGz-5" target="l_2UNXWWoVPSc3BDSIuR-22" edge="1">
          <mxGeometry width="50" height="50" relative="1" as="geometry">
            <mxPoint x="510" y="740" as="sourcePoint" />
            <mxPoint x="770" y="561" as="targetPoint" />
          </mxGeometry>
        </mxCell>
        <mxCell id="l_2UNXWWoVPSc3BDSIuR-21" value="(Individual) Submix 1" style="text;html=1;strokeColor=none;fillColor=none;align=center;verticalAlign=middle;whiteSpace=wrap;rounded=0;" parent="1" vertex="1">
          <mxGeometry x="725" y="555" width="60" height="30" as="geometry" />
        </mxCell>
        <mxCell id="l_2UNXWWoVPSc3BDSIuR-22" value="KH" style="ellipse;whiteSpace=wrap;html=1;" parent="1" vertex="1">
          <mxGeometry x="780" y="575" width="40" height="40" as="geometry" />
        </mxCell>
        <mxCell id="pOUxotwssDYUm1VHsIGz-2" value="" style="endArrow=classic;html=1;rounded=0;exitX=0.5;exitY=1;exitDx=0;exitDy=0;exitPerimeter=0;entryX=0.5;entryY=1;entryDx=0;entryDy=0;startArrow=none;" edge="1" parent="1" source="pOUxotwssDYUm1VHsIGz-17" target="l_2UNXWWoVPSc3BDSIuR-10">
          <mxGeometry width="50" height="50" relative="1" as="geometry">
            <mxPoint x="390" y="420" as="sourcePoint" />
            <mxPoint x="100" y="370" as="targetPoint" />
          </mxGeometry>
        </mxCell>
        <mxCell id="pOUxotwssDYUm1VHsIGz-3" value="CH1" style="rounded=0;whiteSpace=wrap;html=1;rotation=-90;" vertex="1" parent="1">
          <mxGeometry x="30" y="470" width="90" height="20" as="geometry" />
        </mxCell>
        <mxCell id="pOUxotwssDYUm1VHsIGz-4" value="MASTER MIX" style="rounded=0;whiteSpace=wrap;html=1;" vertex="1" parent="1">
          <mxGeometry x="60" y="550" width="640" height="20" as="geometry" />
        </mxCell>
        <mxCell id="pOUxotwssDYUm1VHsIGz-5" value="SUBMIX 1" style="rounded=0;whiteSpace=wrap;html=1;" vertex="1" parent="1">
          <mxGeometry x="60" y="585" width="640" height="20" as="geometry" />
        </mxCell>
        <mxCell id="pOUxotwssDYUm1VHsIGz-6" value="&lt;b&gt;MIC&lt;/b&gt;" style="shape=note;whiteSpace=wrap;html=1;backgroundOutline=1;darkOpacity=0.05;fillColor=#ffcd28;gradientColor=#ffa500;strokeColor=#d79b00;" vertex="1" parent="1">
          <mxGeometry x="720" y="220" width="80" height="100" as="geometry" />
        </mxCell>
        <mxCell id="pOUxotwssDYUm1VHsIGz-7" value="" style="endArrow=classic;html=1;rounded=0;exitX=0.5;exitY=1;exitDx=0;exitDy=0;exitPerimeter=0;" edge="1" parent="1" source="pOUxotwssDYUm1VHsIGz-6">
          <mxGeometry width="50" height="50" relative="1" as="geometry">
            <mxPoint x="390" y="370" as="sourcePoint" />
            <mxPoint x="440" y="320" as="targetPoint" />
          </mxGeometry>
        </mxCell>
        <mxCell id="pOUxotwssDYUm1VHsIGz-8" value="&lt;div&gt;CH2&lt;/div&gt;" style="rounded=0;whiteSpace=wrap;html=1;rotation=-90;" vertex="1" parent="1">
          <mxGeometry x="70" y="470" width="90" height="20" as="geometry" />
        </mxCell>
        <mxCell id="pOUxotwssDYUm1VHsIGz-9" value="CH4" style="rounded=0;whiteSpace=wrap;html=1;rotation=-90;" vertex="1" parent="1">
          <mxGeometry x="150" y="470" width="90" height="20" as="geometry" />
        </mxCell>
        <mxCell id="pOUxotwssDYUm1VHsIGz-10" value="CH6" style="rounded=0;whiteSpace=wrap;html=1;rotation=-90;" vertex="1" parent="1">
          <mxGeometry x="230" y="470" width="90" height="20" as="geometry" />
        </mxCell>
        <mxCell id="pOUxotwssDYUm1VHsIGz-11" value="CH3" style="rounded=0;whiteSpace=wrap;html=1;rotation=-90;" vertex="1" parent="1">
          <mxGeometry x="110" y="470" width="90" height="20" as="geometry" />
        </mxCell>
        <mxCell id="pOUxotwssDYUm1VHsIGz-12" value="&lt;div&gt;CH5&lt;/div&gt;" style="rounded=0;whiteSpace=wrap;html=1;rotation=-90;" vertex="1" parent="1">
          <mxGeometry x="190" y="470" width="90" height="20" as="geometry" />
        </mxCell>
        <mxCell id="pOUxotwssDYUm1VHsIGz-15" value="&lt;div&gt;CH7&lt;/div&gt;" style="rounded=0;whiteSpace=wrap;html=1;rotation=-90;" vertex="1" parent="1">
          <mxGeometry x="270" y="470" width="90" height="20" as="geometry" />
        </mxCell>
        <mxCell id="pOUxotwssDYUm1VHsIGz-16" value="CH8" style="rounded=0;whiteSpace=wrap;html=1;rotation=-90;" vertex="1" parent="1">
          <mxGeometry x="310" y="470" width="90" height="20" as="geometry" />
        </mxCell>
        <mxCell id="pOUxotwssDYUm1VHsIGz-18" value="&lt;div&gt;CH11/12 (Stereo)&lt;/div&gt;" style="rounded=0;whiteSpace=wrap;html=1;rotation=-90;" vertex="1" parent="1">
          <mxGeometry x="400" y="470" width="100" height="20" as="geometry" />
        </mxCell>
        <mxCell id="pOUxotwssDYUm1VHsIGz-17" value="&lt;div&gt;CH9/10 (Stereo)&lt;/div&gt;" style="rounded=0;whiteSpace=wrap;html=1;rotation=-90;" vertex="1" parent="1">
          <mxGeometry x="350" y="470" width="100" height="20" as="geometry" />
        </mxCell>
        <mxCell id="pOUxotwssDYUm1VHsIGz-21" value="" style="endArrow=classic;html=1;rounded=0;exitX=0.5;exitY=1;exitDx=0;exitDy=0;exitPerimeter=0;entryX=1;entryY=0.5;entryDx=0;entryDy=0;" edge="1" parent="1" source="l_2UNXWWoVPSc3BDSIuR-2" target="pOUxotwssDYUm1VHsIGz-17">
          <mxGeometry width="50" height="50" relative="1" as="geometry">
            <mxPoint x="390" y="370" as="sourcePoint" />
            <mxPoint x="440" y="320" as="targetPoint" />
          </mxGeometry>
        </mxCell>
        <mxCell id="pOUxotwssDYUm1VHsIGz-22" value="" style="endArrow=classic;html=1;rounded=0;exitX=0;exitY=0.75;exitDx=0;exitDy=0;entryX=0.541;entryY=0.001;entryDx=0;entryDy=0;entryPerimeter=0;" edge="1" parent="1" source="pOUxotwssDYUm1VHsIGz-17" target="pOUxotwssDYUm1VHsIGz-4">
          <mxGeometry width="50" height="50" relative="1" as="geometry">
            <mxPoint x="390" y="370" as="sourcePoint" />
            <mxPoint x="440" y="320" as="targetPoint" />
          </mxGeometry>
        </mxCell>
        <mxCell id="pOUxotwssDYUm1VHsIGz-23" value="" style="endArrow=classic;html=1;rounded=0;exitX=0;exitY=0.25;exitDx=0;exitDy=0;entryX=0.525;entryY=-0.019;entryDx=0;entryDy=0;entryPerimeter=0;" edge="1" parent="1" source="pOUxotwssDYUm1VHsIGz-17" target="pOUxotwssDYUm1VHsIGz-5">
          <mxGeometry width="50" height="50" relative="1" as="geometry">
            <mxPoint x="470" y="510" as="sourcePoint" />
            <mxPoint x="520" y="460" as="targetPoint" />
          </mxGeometry>
        </mxCell>
        <mxCell id="pOUxotwssDYUm1VHsIGz-24" value="" style="endArrow=classic;html=1;rounded=0;exitX=0;exitY=1;exitDx=0;exitDy=0;entryX=0.94;entryY=1.005;entryDx=0;entryDy=0;entryPerimeter=0;" edge="1" parent="1" source="pOUxotwssDYUm1VHsIGz-17" target="l_2UNXWWoVPSc3BDSIuR-9">
          <mxGeometry width="50" height="50" relative="1" as="geometry">
            <mxPoint x="520" y="530" as="sourcePoint" />
            <mxPoint x="570" y="480" as="targetPoint" />
          </mxGeometry>
        </mxCell>
        <mxCell id="pOUxotwssDYUm1VHsIGz-25" value="" style="endArrow=classic;html=1;rounded=0;exitX=0.824;exitY=0.708;exitDx=0;exitDy=0;exitPerimeter=0;entryX=0.824;entryY=0.996;entryDx=0;entryDy=0;entryPerimeter=0;" edge="1" parent="1" source="l_2UNXWWoVPSc3BDSIuR-9" target="l_2UNXWWoVPSc3BDSIuR-9">
          <mxGeometry width="50" height="50" relative="1" as="geometry">
            <mxPoint x="530" y="650" as="sourcePoint" />
            <mxPoint x="580" y="600" as="targetPoint" />
          </mxGeometry>
        </mxCell>
      </root>
    </mxGraphModel>
  </diagram>
</mxfile>
